<svg width="24" height="24" viewBox="0 0 24 24" fill="none" xmlns="http://www.w3.org/2000/svg">
<rect width="24" height="24" fill="#1E1E2E"/>
<path d="M3.81459 6.15977C1.40213 9.61277 1.38816 14.9651 3.81459 18.4305H5.44448C3.0186 14.9651 3.03257 9.61277 5.44448 6.15977H3.81459Z" fill="white"/>
<path d="M20.186 6.15977H18.5561C20.9683 9.61277 20.9825 14.9651 18.5561 18.4305H20.186C22.6117 14.9651 22.5976 9.61277 20.186 6.15977Z" fill="white"/>
<path d="M8.80463 16.5739C8.67665 16.7019 8.49674 16.7965 8.33446 16.866C8.16328 16.9365 7.988 16.9966 7.80957 17.046C7.60515 17.1031 7.3983 17.1512 7.18964 17.1902L7.17897 17.1915L7.17573 17.192C7.13038 17.2001 7.08337 17.1991 7.03866 17.188C6.99394 17.1769 6.95207 17.1565 6.91576 17.1282C6.87945 17.0998 6.84952 17.0641 6.82792 17.0234C6.80632 16.9828 6.79354 16.938 6.79041 16.892L6.79505 16.8132L6.79505 16.8113L6.79597 16.8085L6.79737 16.7979L6.80478 16.7589L6.83307 16.6203C6.85718 16.5053 6.89381 16.3472 6.94203 16.1775C6.99153 15.9992 7.05177 15.8241 7.1224 15.6531C7.19196 15.4908 7.28562 15.3109 7.41313 15.1834C7.6459 14.9506 7.91622 14.8657 8.18515 14.9205C8.4258 14.9701 8.61498 15.1212 8.74064 15.2469C8.86629 15.3725 9.01792 15.5613 9.0666 15.8019C9.12224 16.0708 9.03693 16.3416 8.80463 16.5739ZM15.2637 11.7888C14.7782 12.2742 14.6692 13.0259 14.6994 13.8545C14.7142 14.2625 14.7601 14.6608 14.7977 15.0313C14.8329 15.3855 14.8649 15.7421 14.8278 16.0138C14.8074 16.1798 14.729 16.3416 14.6493 16.4752C14.5635 16.6166 14.4564 16.7608 14.347 16.8934C14.1327 17.1558 13.8805 17.4146 13.7521 17.5551C13.6989 17.6126 13.6347 17.6587 13.5632 17.6906C13.4916 17.7225 13.4144 17.7395 13.3361 17.7406C13.2578 17.7417 13.1801 17.7268 13.1077 17.6969C13.0353 17.667 12.9698 17.6227 12.9151 17.5667L11.212 15.8636L10.6686 15.9127C10.5777 15.9258 10.4849 15.9175 10.3977 15.8885C10.3105 15.8594 10.2313 15.8104 10.1664 15.7453L8.24311 13.822C8.17834 13.7571 8.12958 13.678 8.10068 13.591C8.07179 13.504 8.06356 13.4115 8.07665 13.3208L8.12534 12.7769L6.42225 11.0738C6.36621 11.0191 6.32189 10.9536 6.29198 10.8812C6.26208 10.8088 6.24722 10.7311 6.2483 10.6528C6.24939 10.5745 6.26639 10.4973 6.29829 10.4258C6.33019 10.3542 6.37631 10.29 6.43384 10.2368L6.71947 9.97163C6.83446 9.86591 6.96429 9.74906 7.09551 9.64195C7.22859 9.53299 7.37186 9.42495 7.51421 9.3401C7.64775 9.26034 7.80911 9.18152 7.97557 9.16158C8.24729 9.12449 8.60293 9.15555 8.95718 9.19079C9.32812 9.22789 9.72642 9.27472 10.1345 9.28956C10.963 9.31969 11.7147 9.2098 12.1997 8.7248L12.7315 8.19296C13.3222 7.60223 14.0896 7.22897 14.7916 7.07596C15.1436 6.99945 15.4895 6.97627 15.7987 7.01475C16.1038 7.05278 16.4001 7.15525 16.6167 7.35788L16.6324 7.37364C16.8351 7.59018 16.9375 7.88647 16.9756 8.19157C17.014 8.49991 16.9909 8.84674 16.9143 9.19867C16.741 9.9758 16.3534 10.6888 15.7955 11.2569L15.2637 11.7888Z" fill="#89DCEB"/>
</svg>
