<svg width="24" height="21" viewBox="0 0 24 21" fill="none" xmlns="http://www.w3.org/2000/svg">
<path d="M2.17751 2.94498C-0.717449 7.08858 -0.734212 13.5114 2.17751 17.6699H4.13337C1.22232 13.5114 1.23908 7.08858 4.13337 2.94498H2.17751Z" fill="white"/>
<path d="M21.8232 2.94498H19.8673C22.7619 7.08858 22.779 13.5114 19.8673 17.6699H21.8232C24.7341 13.5114 24.7171 7.08858 21.8232 2.94498Z" fill="white"/>
<path d="M8.16554 15.442C8.01197 15.5955 7.79608 15.709 7.60134 15.7925C7.39593 15.8771 7.18559 15.9492 6.97148 16.0084C6.72617 16.077 6.47795 16.1347 6.22755 16.1814L6.21475 16.1831L6.21086 16.1837C6.15644 16.1934 6.10003 16.1921 6.04638 16.1788C5.99272 16.1655 5.94247 16.1411 5.89889 16.107C5.85532 16.073 5.81941 16.0302 5.79349 15.9814C5.76757 15.9326 5.75224 15.8788 5.74848 15.8237L5.75404 15.7291L5.75404 15.7268L5.75516 15.7235L5.75683 15.7107L5.76573 15.664L5.79967 15.4976C5.8286 15.3596 5.87256 15.1699 5.93043 14.9662C5.98983 14.7523 6.06211 14.5421 6.14687 14.3369C6.23033 14.1422 6.34273 13.9263 6.49574 13.7733C6.77506 13.494 7.09945 13.3921 7.42217 13.4578C7.71095 13.5173 7.93797 13.6987 8.08875 13.8495C8.23954 14.0003 8.42149 14.2268 8.47991 14.5155C8.54668 14.8383 8.4443 15.1632 8.16554 15.442ZM15.9164 9.69978C15.3338 10.2823 15.203 11.1843 15.2392 12.1786C15.257 12.6682 15.3121 13.1462 15.3572 13.5908C15.3995 14.0159 15.4379 14.4438 15.3933 14.7698C15.3689 14.969 15.2748 15.1632 15.1791 15.3234C15.0762 15.4932 14.9477 15.6662 14.8163 15.8253C14.5593 16.1403 14.2566 16.4507 14.1025 16.6193C14.0387 16.6884 13.9616 16.7437 13.8758 16.782C13.79 16.8203 13.6972 16.8407 13.6033 16.842C13.5093 16.8433 13.4161 16.8254 13.3292 16.7896C13.2424 16.7537 13.1638 16.7005 13.0981 16.6332L11.0544 14.5895L10.4023 14.6485C10.2932 14.6643 10.1819 14.6543 10.0772 14.6194C9.97262 14.5846 9.87759 14.5257 9.79972 14.4477L7.49172 12.1397C7.414 12.0618 7.35548 11.9669 7.32081 11.8625C7.28613 11.7581 7.27626 11.6471 7.29197 11.5382L7.35039 10.8855L5.30669 8.84179C5.23944 8.77616 5.18626 8.69753 5.15037 8.61068C5.11448 8.52384 5.09665 8.4306 5.09795 8.33664C5.09925 8.24268 5.11966 8.14997 5.15794 8.06416C5.19622 7.97834 5.25156 7.90121 5.3206 7.83747L5.66335 7.5192C5.80134 7.39234 5.95714 7.25212 6.1146 7.12359C6.27429 6.99283 6.44622 6.86319 6.61704 6.76136C6.77729 6.66566 6.97092 6.57107 7.17067 6.54714C7.49673 6.50263 7.9235 6.53991 8.3486 6.5822C8.79373 6.62671 9.27169 6.68291 9.76133 6.70071C10.7556 6.73688 11.6576 6.60501 12.2396 6.023L12.8778 5.3848C13.5867 4.67593 14.5075 4.22801 15.3499 4.0444C15.7723 3.95259 16.1873 3.92477 16.5585 3.97095C16.9246 4.01658 17.2801 4.13954 17.54 4.3827L17.5589 4.40162C17.8021 4.66146 17.925 5.01701 17.9706 5.38313C18.0168 5.75314 17.989 6.16934 17.8972 6.59166C17.6891 7.52421 17.224 8.37984 16.5546 9.06157L15.9164 9.69978Z" fill="#89DCEB"/>
</svg>
