<svg width="95" height="14" viewBox="0 0 95 14" fill="none" xmlns="http://www.w3.org/2000/svg">
<path d="M22.24 11C22.104 11 21.996 10.964 21.916 10.892C21.836 10.82 21.78 10.736 21.748 10.64L19.3 2.96C19.284 2.92 19.276 2.884 19.276 2.852C19.276 2.788 19.3 2.732 19.348 2.684C19.404 2.628 19.468 2.6 19.54 2.6H21.028C21.156 2.6 21.256 2.636 21.328 2.708C21.4 2.78 21.444 2.848 21.46 2.912L23.152 8.456L24.856 2.912C24.88 2.848 24.924 2.78 24.988 2.708C25.06 2.636 25.16 2.6 25.288 2.6H26.776C26.848 2.6 26.908 2.628 26.956 2.684C27.012 2.732 27.04 2.788 27.04 2.852C27.04 2.884 27.032 2.92 27.016 2.96L24.568 10.64C24.536 10.736 24.48 10.82 24.4 10.892C24.328 10.964 24.22 11 24.076 11H22.24Z" fill="#EFF1F5"/>
<path d="M28.2203 11C28.1323 11 28.0603 10.972 28.0043 10.916C27.9483 10.86 27.9203 10.788 27.9203 10.7V2.9C27.9203 2.812 27.9483 2.74 28.0043 2.684C28.0603 2.628 28.1323 2.6 28.2203 2.6H29.8283C29.9163 2.6 29.9883 2.628 30.0443 2.684C30.1003 2.74 30.1283 2.812 30.1283 2.9V10.7C30.1283 10.788 30.1003 10.86 30.0443 10.916C29.9883 10.972 29.9163 11 29.8283 11H28.2203Z" fill="#EFF1F5"/>
<path d="M33.7189 11C33.6309 11 33.5589 10.972 33.5029 10.916C33.4469 10.86 33.4189 10.788 33.4189 10.7V4.484H31.2829C31.1949 4.484 31.1229 4.456 31.0669 4.4C31.0109 4.336 30.9829 4.264 30.9829 4.184V2.9C30.9829 2.812 31.0109 2.74 31.0669 2.684C31.1229 2.628 31.1949 2.6 31.2829 2.6H37.7389C37.8269 2.6 37.8989 2.628 37.9549 2.684C38.0109 2.74 38.0389 2.812 38.0389 2.9V4.184C38.0389 4.264 38.0109 4.336 37.9549 4.4C37.8989 4.456 37.8269 4.484 37.7389 4.484H35.6029V10.7C35.6029 10.788 35.5749 10.86 35.5189 10.916C35.4629 10.972 35.3909 11 35.3029 11H33.7189Z" fill="#EFF1F5"/>
<path d="M39.1895 11C39.1015 11 39.0295 10.972 38.9735 10.916C38.9175 10.86 38.8895 10.788 38.8895 10.7V2.9C38.8895 2.812 38.9175 2.74 38.9735 2.684C39.0295 2.628 39.1015 2.6 39.1895 2.6H44.7935C44.8815 2.6 44.9535 2.628 45.0095 2.684C45.0655 2.74 45.0935 2.812 45.0935 2.9V4.028C45.0935 4.116 45.0655 4.188 45.0095 4.244C44.9535 4.3 44.8815 4.328 44.7935 4.328H40.9655V5.948H44.5295C44.6175 5.948 44.6895 5.98 44.7455 6.044C44.8015 6.1 44.8295 6.172 44.8295 6.26V7.304C44.8295 7.384 44.8015 7.456 44.7455 7.52C44.6895 7.576 44.6175 7.604 44.5295 7.604H40.9655V9.272H44.8895C44.9775 9.272 45.0495 9.3 45.1055 9.356C45.1615 9.412 45.1895 9.484 45.1895 9.572V10.7C45.1895 10.788 45.1615 10.86 45.1055 10.916C45.0495 10.972 44.9775 11 44.8895 11H39.1895Z" fill="#EFF1F5"/>
<path d="M48.9283 11C48.8403 11 48.7683 10.972 48.7123 10.916C48.6563 10.86 48.6283 10.788 48.6283 10.7V2.9C48.6283 2.812 48.6563 2.74 48.7123 2.684C48.7683 2.628 48.8403 2.6 48.9283 2.6H52.0483C52.8323 2.6 53.5003 2.728 54.0523 2.984C54.6043 3.232 55.0283 3.6 55.3243 4.088C55.6203 4.568 55.7803 5.164 55.8043 5.876C55.8123 6.228 55.8163 6.536 55.8163 6.8C55.8163 7.064 55.8123 7.368 55.8043 7.712C55.7723 8.456 55.6123 9.072 55.3243 9.56C55.0443 10.048 54.6323 10.412 54.0883 10.652C53.5523 10.884 52.8923 11 52.1083 11H48.9283ZM50.7763 9.272H52.0483C52.3923 9.272 52.6763 9.22 52.9003 9.116C53.1323 9.004 53.3043 8.832 53.4163 8.6C53.5363 8.368 53.6003 8.064 53.6083 7.688C53.6243 7.456 53.6323 7.248 53.6323 7.064C53.6403 6.88 53.6403 6.696 53.6323 6.512C53.6323 6.328 53.6243 6.124 53.6083 5.9C53.5923 5.356 53.4483 4.96 53.1763 4.712C52.9123 4.456 52.5163 4.328 51.9883 4.328H50.7763V9.272Z" fill="#EFF1F5"/>
<path d="M57.2781 11C57.1901 11 57.1181 10.972 57.0621 10.916C57.0061 10.86 56.9781 10.788 56.9781 10.7V2.9C56.9781 2.812 57.0061 2.74 57.0621 2.684C57.1181 2.628 57.1901 2.6 57.2781 2.6H62.8821C62.9701 2.6 63.0421 2.628 63.0981 2.684C63.1541 2.74 63.1821 2.812 63.1821 2.9V4.028C63.1821 4.116 63.1541 4.188 63.0981 4.244C63.0421 4.3 62.9701 4.328 62.8821 4.328H59.0541V5.948H62.6181C62.7061 5.948 62.7781 5.98 62.8341 6.044C62.8901 6.1 62.9181 6.172 62.9181 6.26V7.304C62.9181 7.384 62.8901 7.456 62.8341 7.52C62.7781 7.576 62.7061 7.604 62.6181 7.604H59.0541V9.272H62.9781C63.0661 9.272 63.1381 9.3 63.1941 9.356C63.2501 9.412 63.2781 9.484 63.2781 9.572V10.7C63.2781 10.788 63.2501 10.86 63.1941 10.916C63.1381 10.972 63.0661 11 62.9781 11H57.2781Z" fill="#EFF1F5"/>
<path d="M64.7022 11C64.6142 11 64.5422 10.972 64.4862 10.916C64.4302 10.86 64.4022 10.788 64.4022 10.7V2.9C64.4022 2.812 64.4302 2.74 64.4862 2.684C64.5422 2.628 64.6142 2.6 64.7022 2.6H68.0622C68.7262 2.6 69.3022 2.704 69.7902 2.912C70.2862 3.112 70.6702 3.416 70.9422 3.824C71.2222 4.232 71.3622 4.748 71.3622 5.372C71.3622 5.988 71.2222 6.496 70.9422 6.896C70.6702 7.296 70.2862 7.592 69.7902 7.784C69.3022 7.976 68.7262 8.072 68.0622 8.072H66.6342V10.7C66.6342 10.788 66.6022 10.86 66.5382 10.916C66.4822 10.972 66.4102 11 66.3222 11H64.7022ZM66.5982 6.416H68.0022C68.3462 6.416 68.6182 6.328 68.8182 6.152C69.0262 5.976 69.1302 5.708 69.1302 5.348C69.1302 5.044 69.0422 4.788 68.8662 4.58C68.6902 4.372 68.4022 4.268 68.0022 4.268H66.5982V6.416Z" fill="#EFF1F5"/>
<path d="M72.5716 11C72.4836 11 72.4116 10.972 72.3556 10.916C72.2996 10.86 72.2716 10.788 72.2716 10.7V2.9C72.2716 2.812 72.2996 2.74 72.3556 2.684C72.4116 2.628 72.4836 2.6 72.5716 2.6H74.1556C74.2356 2.6 74.3036 2.628 74.3596 2.684C74.4236 2.74 74.4556 2.812 74.4556 2.9V9.188H78.0796C78.1676 9.188 78.2396 9.22 78.2956 9.284C78.3596 9.34 78.3916 9.412 78.3916 9.5V10.7C78.3916 10.788 78.3596 10.86 78.2956 10.916C78.2396 10.972 78.1676 11 78.0796 11H72.5716Z" fill="#EFF1F5"/>
<path d="M82.53 11.12C81.794 11.12 81.154 11 80.61 10.76C80.066 10.52 79.642 10.16 79.338 9.68C79.034 9.192 78.866 8.584 78.834 7.856C78.826 7.512 78.822 7.168 78.822 6.824C78.822 6.48 78.826 6.132 78.834 5.78C78.866 5.06 79.034 4.456 79.338 3.968C79.65 3.472 80.078 3.1 80.622 2.852C81.166 2.604 81.802 2.48 82.53 2.48C83.25 2.48 83.882 2.604 84.426 2.852C84.978 3.1 85.41 3.472 85.722 3.968C86.034 4.456 86.202 5.06 86.226 5.78C86.242 6.132 86.25 6.48 86.25 6.824C86.25 7.168 86.242 7.512 86.226 7.856C86.194 8.584 86.026 9.192 85.722 9.68C85.418 10.16 84.994 10.52 84.45 10.76C83.906 11 83.266 11.12 82.53 11.12ZM82.53 9.392C82.954 9.392 83.298 9.264 83.562 9.008C83.834 8.752 83.978 8.344 83.994 7.784C84.01 7.432 84.018 7.1 84.018 6.788C84.018 6.476 84.01 6.152 83.994 5.816C83.978 5.44 83.906 5.136 83.778 4.904C83.658 4.664 83.49 4.488 83.274 4.376C83.058 4.264 82.81 4.208 82.53 4.208C82.258 4.208 82.014 4.264 81.798 4.376C81.582 4.488 81.41 4.664 81.282 4.904C81.154 5.136 81.082 5.44 81.066 5.816C81.058 6.152 81.054 6.476 81.054 6.788C81.054 7.1 81.058 7.432 81.066 7.784C81.09 8.344 81.234 8.752 81.498 9.008C81.762 9.264 82.106 9.392 82.53 9.392Z" fill="#EFF1F5"/>
<path d="M89.4742 11C89.3942 11 89.3222 10.972 89.2582 10.916C89.2022 10.86 89.1742 10.788 89.1742 10.7V8.12L86.3902 2.984C86.3822 2.96 86.3742 2.94 86.3662 2.924C86.3582 2.9 86.3542 2.876 86.3542 2.852C86.3542 2.788 86.3782 2.732 86.4262 2.684C86.4822 2.628 86.5462 2.6 86.6182 2.6H88.1182C88.2382 2.6 88.3302 2.632 88.3942 2.696C88.4662 2.752 88.5102 2.804 88.5262 2.852L90.2542 5.948L91.9822 2.852C92.0062 2.804 92.0502 2.752 92.1142 2.696C92.1862 2.632 92.2822 2.6 92.4022 2.6H93.9022C93.9742 2.6 94.0342 2.628 94.0822 2.684C94.1302 2.732 94.1542 2.788 94.1542 2.852C94.1542 2.876 94.1502 2.9 94.1422 2.924C94.1422 2.94 94.1382 2.96 94.1302 2.984L91.3342 8.12V10.7C91.3342 10.788 91.3062 10.86 91.2502 10.916C91.1942 10.972 91.1222 11 91.0342 11H89.4742Z" fill="#EFF1F5"/>
<path d="M1.47879 2C-0.487234 4.814 -0.498619 9.17585 1.47879 12H2.80706C0.8301 9.17585 0.841485 4.814 2.80706 2H1.47879Z" fill="#EFF1F5"/>
<path d="M14.8206 2H13.4923C15.4581 4.814 15.4697 9.17585 13.4923 12H14.8206C16.7974 9.17585 16.7859 4.814 14.8206 2Z" fill="#EFF1F5"/>
<path d="M5.54542 10.487C5.44113 10.5913 5.29452 10.6683 5.16226 10.725C5.02276 10.7825 4.87992 10.8314 4.73451 10.8716C4.56792 10.9182 4.39935 10.9574 4.2293 10.9892L4.22061 10.9903L4.21796 10.9907C4.18101 10.9973 4.14269 10.9964 4.10626 10.9874C4.06982 10.9783 4.03569 10.9617 4.0061 10.9386C3.97651 10.9155 3.95212 10.8865 3.93452 10.8533C3.91692 10.8201 3.9065 10.7836 3.90395 10.7462L3.90773 10.6819L3.90773 10.6804L3.90848 10.6782L3.90962 10.6695L3.91566 10.6377L3.93871 10.5247C3.95836 10.431 3.98821 10.3022 4.02751 10.1639C4.06785 10.0186 4.11694 9.87587 4.1745 9.73651C4.23119 9.60425 4.30752 9.45764 4.41143 9.35372C4.60112 9.16403 4.82142 9.09488 5.04059 9.13947C5.2367 9.1799 5.39087 9.30309 5.49328 9.40549C5.59568 9.50789 5.71924 9.66169 5.75892 9.8578C5.80427 10.077 5.73474 10.2976 5.54542 10.487ZM10.8092 6.58732C10.4135 6.98296 10.3247 7.59549 10.3493 8.27074C10.3614 8.60327 10.3988 8.92786 10.4294 9.22978C10.4581 9.51848 10.4842 9.80906 10.454 10.0305C10.4374 10.1658 10.3735 10.2976 10.3085 10.4065C10.2386 10.5217 10.1513 10.6392 10.0621 10.7473C9.88755 10.9612 9.68199 11.172 9.57731 11.2865C9.53402 11.3334 9.48165 11.371 9.42337 11.397C9.36508 11.423 9.30212 11.4369 9.23831 11.4377C9.17451 11.4386 9.11118 11.4265 9.05221 11.4021C8.99323 11.3778 8.93983 11.3417 8.89526 11.296L7.50733 9.90806L7.06447 9.94812C6.99034 9.95881 6.91475 9.95205 6.8437 9.92836C6.77265 9.90468 6.70812 9.86473 6.65523 9.8117L5.08782 8.24429C5.03504 8.19142 4.9953 8.12698 4.97175 8.05607C4.9482 7.98517 4.9415 7.90976 4.95216 7.83581L4.99184 7.39257L3.60392 6.00465C3.55825 5.96007 3.52213 5.90667 3.49776 5.8477C3.47339 5.78872 3.46127 5.7254 3.46216 5.66159C3.46304 5.59778 3.4769 5.53482 3.5029 5.47654C3.52889 5.41826 3.56648 5.36588 3.61337 5.32259L3.84613 5.10644C3.93985 5.02029 4.04565 4.92507 4.15259 4.83778C4.26104 4.74898 4.3778 4.66093 4.49381 4.59178C4.60263 4.52679 4.73413 4.46255 4.86979 4.4463C5.09122 4.41607 5.38105 4.44139 5.66974 4.47011C5.97204 4.50034 6.29663 4.5385 6.62916 4.5506C7.30442 4.57516 7.91695 4.4856 8.3122 4.09035L8.74562 3.65693C9.22703 3.17552 9.85241 2.87133 10.4245 2.74664C10.7113 2.68429 10.9932 2.66539 11.2452 2.69676C11.4939 2.72774 11.7353 2.81125 11.9118 2.97638L11.9247 2.98923C12.0898 3.1657 12.1733 3.40716 12.2043 3.6558C12.2356 3.90708 12.2167 4.18973 12.1544 4.47653C12.0131 5.10985 11.6972 5.69092 11.2426 6.15391L10.8092 6.58732Z" fill="#89DCEB"/>
</svg>
